# xmcd
#
# Track frame offsets:
#  183
#  13028
#  26440
#  38228
#  51828
#  64458
#  75720
#  89130
#  102405
#  114338
#  129545
#  142923
#  154118
#  169020
#  197870
#  212583
#  225755
#  239893
#  253110
#  265145
#  280163
#  293533
#  306638
#  319220
#  332585
#
# Disc length: 4641 seconds
#
# Revision: 3
# Processed by: cddbd v1.5.2PL0 Copyright (c) Steve Scherf et al.
# Submitted via: Collectorz.com_Music_Collector 6.10
#
DISCID=6e121f19
DTITLE=Various Artist - Empty Bed Blues: Best of the Good Time Mommas
DYEAR=1996
DGENRE=Blues
TTITLE0=Barrel House Annie - If It Don't Fit (Don't Force It)
TTITLE1=Memphis Minnie - Iceman (Come On Up)
TTITLE2=Smith, Bessie - Take Me For A Buggy Ride
TTITLE3=Johnson, Lil - Sam-The Hot Dog Man
TTITLE4=Kirkman, Lillie Mae - He's Just My Size
TTITLE5=White, Georgia - My Castle's Rockin'
TTITLE6=White, Georgia - My Butcher Man
TTITLE7=Memphis Minnie - My Handy Man
TTITLE8=Bogan, Lucille - Keep On Eatin'
TTITLE9=Hunter, Alberta - Shave 'Em Dry #2
TTITLE10=White, Georgia - Send Me A Man
TTITLE11=Pierce, Billie - Walking The Street
TTITLE12=Smith, Bessie - In The Racket (Parts 1 and 2)
TTITLE13=Liston, Virginia - Empty Bed Blues
TTITLE14=Armstrong, Lil - I've Got What It Takes
TTITLE15=Spivey, Victoria - Johnson, Lonnie - Or Leave Me Alone
TTITLE16=Johnson, Lil - Furniture Man Blues
TTITLE17=White, Georgia - Get 'Em From The Peanut Man (The New Hot Nuts)
TTITLE18=Henderson, Rosa - Blues Ain't Nothin' But...
TTITLE19=Smith, Bessie - Can't Be Bothered With No Shiek
TTITLE20=Smith, Clara - Kitchen Man
TTITLE21=Smith, Bessie - One Hour Mama
TTITLE22=Copeland, Martha - Good Time Mama Blues
TTITLE23=Smith, Clara - For Sale (Hannah Johnson's Big Black Jack Ass)
TTITLE24=Smith, Bessie - You've Been A Good Ole Wagon
EXTD=
EXTT0=
EXTT1=
EXTT2=
EXTT3=
EXTT4=
EXTT5=
EXTT6=
EXTT7=
EXTT8=
EXTT9=
EXTT10=
EXTT11=
EXTT12=
EXTT13=
EXTT14=
EXTT15=
EXTT16=
EXTT17=
EXTT18=
EXTT19=
EXTT20=
EXTT21=
EXTT22=
EXTT23=
EXTT24=
PLAYORDER=
